<svg xmlns="http://www.w3.org/2000/svg" xmlns:xlink="http://www.w3.org/1999/xlink" width="1080" zoomAndPan="magnify" viewBox="0 0 810 1439.999935" height="1920" preserveAspectRatio="xMidYMid meet" version="1.0"><defs><clipPath id="aea5ff3957"><path d="M 198.355469 20 L 611.605469 20 L 611.605469 1419 L 198.355469 1419 Z M 198.355469 20 " clip-rule="nonzero"/></clipPath></defs><rect x="-81" width="972" fill="#ffffff" y="-143.999994" height="1727.999922" fill-opacity="1"/><rect x="-81" width="972" fill="#ffffff" y="-143.999994" height="1727.999922" fill-opacity="1"/><g clip-path="url(#aea5ff3957)"><path fill="#100f0d" d="M 280.558594 60.085938 L 529.773438 60.085938 L 529.773438 1254.261719 C 529.773438 1323.183594 474.019531 1378.941406 405.230469 1378.941406 C 336.3125 1378.941406 280.558594 1323.183594 280.558594 1254.261719 Z M 198.355469 20.46875 L 198.355469 60.085938 L 240.328125 60.085938 L 240.328125 1254.261719 C 240.574219 1345.414062 314.582031 1419.054688 405.726562 1418.808594 C 496.371094 1418.558594 569.882812 1345.039062 570.132812 1254.261719 L 570.132812 60.085938 L 612.101562 60.085938 L 612.101562 20.46875 L 198.355469 20.46875 " fill-opacity="1" fill-rule="nonzero"/></g></svg>