<svg xmlns="http://www.w3.org/2000/svg" xmlns:xlink="http://www.w3.org/1999/xlink" width="500" zoomAndPan="magnify" viewBox="0 0 375 374.999991" height="500" preserveAspectRatio="xMidYMid meet" version="1.0"><path fill="#b6320f" d="M 375 187.5 C 375 166.40625 360.46875 145.96875 334.085938 129.742188 C 343.648438 100.605469 343.761719 76.277344 334.425781 59.066406 C 336.707031 56.058594 338.007812 52.453125 338.007812 48.628906 C 338.007812 39.027344 330.207031 31.21875 320.625 31.21875 C 315.660156 31.21875 310.96875 33.351562 307.675781 37.007812 C 291.265625 31.515625 269.789062 32.855469 245.257812 40.90625 C 229.027344 14.527344 208.59375 0 187.5 0 C 166.40625 0 145.964844 14.53125 129.738281 40.917969 C 93.921875 29.148438 65.09375 31.769531 48.425781 48.433594 C 41.683594 55.203125 37.234375 63.964844 35.113281 74.46875 C 25.558594 74.503906 17.796875 82.296875 17.796875 91.875 C 17.796875 101.457031 25.59375 109.257812 35.179688 109.257812 C 35.328125 109.257812 35.460938 109.238281 35.605469 109.234375 C 36.808594 115.792969 38.578125 122.65625 40.894531 129.738281 C 14.519531 145.972656 0 166.414062 0 187.5 C 0 208.59375 14.53125 229.03125 40.917969 245.257812 C 29.148438 281.074219 31.769531 309.902344 48.429688 326.566406 C 58.257812 336.394531 72.300781 341.347656 89.519531 341.347656 C 101.503906 341.347656 115.042969 338.914062 129.742188 334.082031 C 145.96875 360.46875 166.40625 375 187.5 375 C 208.59375 375 229.035156 360.46875 245.257812 334.085938 C 259.960938 338.917969 273.492188 341.351562 285.480469 341.351562 C 302.695312 341.351562 316.742188 336.394531 326.566406 326.570312 C 343.230469 309.90625 345.847656 281.074219 334.078125 245.261719 C 360.46875 229.03125 375 208.59375 375 187.5 Z M 259.144531 288.535156 C 257.578125 288.085938 255.953125 287.828125 254.316406 287.828125 C 244.714844 287.828125 236.90625 295.625 236.90625 305.207031 C 236.90625 311.679688 240.582031 317.542969 246.105469 320.507812 C 244.929688 322.789062 243.78125 324.902344 242.636719 326.894531 C 226.738281 321.253906 210.054688 312.972656 192.957031 302.238281 C 203.910156 294.90625 214.78125 286.789062 225.34375 277.980469 C 238.734375 276.621094 251.660156 274.554688 263.917969 271.867188 C 262.480469 277.582031 260.882812 283.15625 259.144531 288.535156 Z M 132.398438 326.878906 C 123.703125 311.707031 116.40625 292.832031 111.109375 271.871094 C 123.359375 274.554688 136.277344 276.617188 149.65625 277.976562 C 160.214844 286.78125 171.085938 294.902344 182.042969 302.234375 C 164.957031 312.964844 148.289062 321.238281 132.398438 326.878906 Z M 132.398438 48.117188 C 148.34375 53.78125 165.019531 62.0625 182.070312 72.785156 C 171.269531 79.980469 160.394531 88.089844 149.660156 97.023438 C 136.285156 98.375 123.367188 100.445312 111.109375 103.128906 C 116.40625 82.167969 123.703125 63.300781 132.398438 48.117188 Z M 242.601562 48.117188 C 251.296875 63.296875 258.59375 82.167969 263.890625 103.128906 C 251.632812 100.445312 238.71875 98.375 225.34375 97.023438 C 214.683594 88.132812 203.820312 80.019531 192.984375 72.789062 C 210.0625 62.042969 226.71875 53.757812 242.601562 48.117188 Z M 233.394531 271.066406 C 240 265.234375 246.507812 259.128906 252.820312 252.820312 C 259.164062 246.476562 265.265625 239.964844 271.050781 233.394531 C 269.671875 244.476562 267.792969 255.207031 265.445312 265.445312 C 255.230469 267.785156 244.496094 269.667969 233.394531 271.066406 Z M 109.554688 265.445312 C 107.183594 255.105469 105.296875 244.355469 103.921875 233.34375 C 109.769531 239.988281 115.878906 246.511719 122.179688 252.820312 C 128.492188 259.125 135 265.230469 141.605469 271.0625 C 130.507812 269.667969 119.773438 267.785156 109.554688 265.445312 Z M 141.617188 103.933594 C 135.101562 109.6875 128.589844 115.792969 122.179688 122.179688 C 115.871094 128.488281 109.769531 134.996094 103.933594 141.609375 C 105.328125 130.515625 107.210938 119.78125 109.554688 109.554688 C 119.78125 107.210938 130.519531 105.328125 141.617188 103.933594 Z M 152.074219 272.234375 C 143.320312 264.839844 134.679688 256.898438 126.390625 248.609375 C 118.121094 240.339844 110.183594 231.679688 102.765625 222.867188 C 101.667969 211.394531 101.101562 199.503906 101.101562 187.5 C 101.101562 175.488281 101.667969 163.578125 102.765625 152.074219 C 110.167969 143.316406 118.105469 134.675781 126.386719 126.394531 C 134.847656 117.960938 143.492188 110.019531 152.074219 102.769531 C 163.582031 101.667969 175.488281 101.101562 187.5 101.101562 C 199.511719 101.101562 211.421875 101.667969 222.925781 102.765625 C 231.683594 110.167969 240.324219 118.105469 248.609375 126.390625 C 256.894531 134.679688 264.832031 143.320312 272.234375 152.078125 C 273.332031 163.582031 273.898438 175.488281 273.898438 187.5 C 273.898438 199.605469 273.324219 211.507812 272.207031 222.921875 C 264.890625 231.617188 256.964844 240.257812 248.609375 248.609375 C 240.320312 256.902344 231.675781 264.839844 222.921875 272.234375 C 199.882812 274.425781 175.113281 274.425781 152.074219 272.234375 Z M 96.113281 214.75 C 88.890625 205.71875 82.253906 196.582031 76.292969 187.472656 C 82.269531 178.367188 88.90625 169.234375 96.113281 160.207031 C 95.476562 169.160156 95.148438 178.300781 95.148438 187.5 C 95.148438 196.691406 95.476562 205.820312 96.113281 214.75 Z M 278.886719 160.207031 C 286.039062 169.171875 292.683594 178.3125 298.730469 187.496094 C 292.660156 196.71875 286.011719 205.855469 278.871094 214.785156 C 279.515625 205.886719 279.847656 196.746094 279.847656 187.496094 C 279.851562 178.304688 279.523438 169.164062 278.886719 160.207031 Z M 252.820312 122.179688 C 246.511719 115.875 240.003906 109.769531 233.390625 103.9375 C 244.484375 105.332031 255.21875 107.214844 265.445312 109.558594 C 267.789062 119.78125 269.667969 130.515625 271.066406 141.613281 C 265.230469 134.996094 259.125 128.488281 252.820312 122.179688 Z M 214.796875 96.117188 C 196.867188 94.847656 178.15625 94.847656 160.222656 96.117188 C 169.304688 88.882812 178.449219 82.242188 187.527344 76.292969 C 196.632812 82.269531 205.769531 88.90625 214.796875 96.117188 Z M 97.023438 149.65625 C 88.132812 160.320312 80.019531 171.179688 72.785156 182.019531 C 62.101562 165.070312 53.808594 148.40625 48.09375 132.402344 C 63.316406 123.695312 82.195312 116.394531 103.132812 111.113281 C 100.445312 123.367188 98.375 136.28125 97.023438 149.65625 Z M 72.785156 192.933594 C 80 203.769531 88.105469 214.628906 97.023438 225.28125 C 98.339844 238.539062 100.40625 251.480469 103.132812 263.890625 C 82.179688 258.597656 63.304688 251.300781 48.121094 242.597656 C 53.78125 226.65625 62.0625 209.980469 72.785156 192.933594 Z M 160.207031 278.886719 C 169.167969 279.523438 178.308594 279.851562 187.5 279.851562 C 196.691406 279.851562 205.832031 279.523438 214.792969 278.886719 C 205.832031 286.035156 196.691406 292.679688 187.5 298.734375 C 178.304688 292.679688 169.167969 286.03125 160.207031 278.886719 Z M 277.949219 225.339844 C 286.746094 214.828125 294.875 203.953125 302.234375 192.957031 C 312.960938 210.042969 321.234375 226.707031 326.882812 242.601562 C 311.699219 251.300781 292.828125 258.601562 271.871094 263.890625 C 274.566406 251.609375 276.625 238.695312 277.949219 225.339844 Z M 302.234375 182.042969 C 294.90625 171.09375 286.785156 160.222656 277.976562 149.660156 C 276.625 136.285156 274.554688 123.367188 271.871094 111.109375 C 292.832031 116.402344 311.703125 123.699219 326.882812 132.398438 C 321.242188 148.289062 312.960938 164.957031 302.234375 182.042969 Z M 304.488281 42.21875 C 303.679688 44.25 303.214844 46.410156 303.214844 48.632812 C 303.214844 58.214844 311.027344 66.011719 320.625 66.011719 C 323.980469 66.011719 327.179688 65.050781 329.941406 63.28125 C 337.476562 78.582031 337.082031 100.820312 328.824219 126.664062 C 312.640625 117.546875 292.582031 109.957031 270.394531 104.601562 C 265.035156 82.410156 257.445312 62.347656 248.328125 46.164062 C 270.457031 39.078125 289.730469 37.714844 304.488281 42.21875 Z M 187.5 5.953125 C 206.15625 5.953125 224.519531 19.0625 239.496094 42.914062 C 222.828125 48.945312 205.375 57.761719 187.527344 69.195312 C 169.710938 57.78125 152.238281 48.96875 135.503906 42.914062 C 150.480469 19.066406 168.84375 5.953125 187.5 5.953125 Z M 52.640625 52.640625 C 67.457031 37.832031 93.667969 35.59375 126.664062 46.179688 C 117.550781 62.367188 109.960938 82.417969 104.605469 104.605469 C 82.449219 109.953125 62.382812 117.539062 46.15625 126.664062 C 44.109375 120.242188 42.53125 114.019531 41.445312 108.078125 C 48.03125 105.542969 52.5625 99.140625 52.5625 91.878906 C 52.5625 84.339844 47.839844 77.863281 40.980469 75.472656 C 42.878906 66.207031 46.78125 58.523438 52.640625 52.640625 Z M 5.953125 187.5 C 5.953125 168.847656 19.054688 150.480469 42.890625 135.5 C 48.996094 152.304688 57.824219 169.757812 69.191406 187.472656 C 57.78125 205.289062 48.964844 222.761719 42.914062 239.492188 C 19.066406 224.519531 5.953125 206.160156 5.953125 187.5 Z M 52.640625 322.359375 C 37.828125 307.546875 35.59375 281.335938 46.179688 248.335938 C 62.367188 257.457031 82.421875 265.042969 104.601562 270.398438 C 109.960938 292.582031 117.546875 312.640625 126.660156 328.820312 C 93.667969 339.40625 67.453125 337.167969 52.640625 322.359375 Z M 187.5 369.046875 C 168.84375 369.046875 150.480469 355.9375 135.503906 332.085938 C 152.175781 326.054688 169.632812 317.253906 187.5 305.835938 C 205.367188 317.25 222.828125 326.054688 239.496094 332.085938 C 224.519531 355.9375 206.160156 369.046875 187.5 369.046875 Z M 322.359375 322.359375 C 307.554688 337.167969 281.363281 339.402344 248.382812 328.835938 C 249.507812 326.835938 250.644531 324.707031 251.800781 322.433594 C 252.625 322.554688 253.464844 322.621094 254.316406 322.621094 C 263.898438 322.621094 271.695312 314.808594 271.695312 305.207031 C 271.695312 299.585938 269.007812 294.40625 264.554688 291.160156 C 266.730469 284.5 268.695312 277.539062 270.40625 270.398438 C 292.585938 265.039062 312.636719 257.457031 328.820312 248.339844 C 339.40625 281.332031 337.171875 307.546875 322.359375 322.359375 Z M 332.085938 239.496094 C 326.054688 222.824219 317.246094 205.367188 305.835938 187.5 C 317.246094 169.636719 326.054688 152.175781 332.085938 135.503906 C 355.9375 150.480469 369.046875 168.84375 369.046875 187.5 C 369.046875 206.15625 355.9375 224.519531 332.085938 239.496094 Z M 332.085938 239.496094 " fill-opacity="1" fill-rule="nonzero"/><path fill="#b6320f" d="M 227.945312 178.839844 C 227.945312 156.535156 209.804688 138.394531 187.5 138.394531 C 165.195312 138.394531 147.054688 156.535156 147.054688 178.839844 C 147.054688 201.15625 165.195312 219.320312 187.5 219.320312 C 209.804688 219.320312 227.945312 201.15625 227.945312 178.839844 Z M 227.945312 178.839844 " fill-opacity="1" fill-rule="nonzero"/></svg>