<svg xmlns="http://www.w3.org/2000/svg" xmlns:xlink="http://www.w3.org/1999/xlink" width="600" zoomAndPan="magnify" viewBox="0 0 450 149.999998" height="200" preserveAspectRatio="xMidYMid meet" version="1.0"><defs><g/><clipPath id="d2a1f66637"><path d="M 43 103 L 45 103 L 45 107.707031 L 43 107.707031 Z M 43 103 " clip-rule="nonzero"/></clipPath><clipPath id="990611660d"><path d="M 74 103 L 76 103 L 76 107.707031 L 74 107.707031 Z M 74 103 " clip-rule="nonzero"/></clipPath><clipPath id="798da2f019"><path d="M 43 42.457031 L 45 42.457031 L 45 47 L 43 47 Z M 43 42.457031 " clip-rule="nonzero"/></clipPath><clipPath id="a275635a21"><path d="M 74 42.457031 L 76 42.457031 L 76 47 L 74 47 Z M 74 42.457031 " clip-rule="nonzero"/></clipPath><clipPath id="1e439f5b3c"><path d="M 24 53 L 83.25 53 L 83.25 97 L 24 97 Z M 24 53 " clip-rule="nonzero"/></clipPath><clipPath id="e9554f0851"><path d="M 206 58 L 210.621094 58 L 210.621094 62 L 206 62 Z M 206 58 " clip-rule="nonzero"/></clipPath><clipPath id="3f61286523"><path d="M 206 89 L 210.621094 89 L 210.621094 92 L 206 92 Z M 206 89 " clip-rule="nonzero"/></clipPath><clipPath id="69efc8abe4"><path d="M 181 103 L 183 103 L 183 107.707031 L 181 107.707031 Z M 181 103 " clip-rule="nonzero"/></clipPath><clipPath id="771f33bdde"><path d="M 150 103 L 152 103 L 152 107.707031 L 150 107.707031 Z M 150 103 " clip-rule="nonzero"/></clipPath><clipPath id="fd2e008632"><path d="M 181 42.457031 L 183 42.457031 L 183 47 L 181 47 Z M 181 42.457031 " clip-rule="nonzero"/></clipPath><clipPath id="5d29e31801"><path d="M 150 42.457031 L 152 42.457031 L 152 47 L 150 47 Z M 150 42.457031 " clip-rule="nonzero"/></clipPath><clipPath id="86921d97c0"><path d="M 142.429688 53 L 201 53 L 201 97 L 142.429688 97 Z M 142.429688 53 " clip-rule="nonzero"/></clipPath><clipPath id="bfcfc97696"><path d="M 74.484375 36.304688 L 151.734375 36.304688 L 151.734375 113.554688 L 74.484375 113.554688 Z M 74.484375 36.304688 " clip-rule="nonzero"/></clipPath></defs><path fill="#ebab0a" d="M 43.539062 62.53125 L 32.984375 68.625 C 32.726562 68.773438 32.636719 69.105469 32.785156 69.367188 C 32.886719 69.539062 33.066406 69.636719 33.253906 69.636719 C 33.347656 69.636719 33.4375 69.613281 33.523438 69.566406 L 44.078125 63.46875 C 44.335938 63.320312 44.425781 62.988281 44.277344 62.730469 C 44.128906 62.46875 43.796875 62.382812 43.539062 62.53125 Z M 43.539062 62.53125 " fill-opacity="1" fill-rule="nonzero"/><path fill="#ebab0a" d="M 24.328125 63.359375 L 21.65625 61.8125 C 21.398438 61.664062 21.070312 61.753906 20.917969 62.011719 C 20.769531 62.273438 20.859375 62.605469 21.117188 62.753906 L 23.789062 64.300781 C 23.871094 64.347656 23.964844 64.371094 24.058594 64.371094 C 24.242188 64.371094 24.425781 64.277344 24.523438 64.101562 C 24.675781 63.839844 24.585938 63.507812 24.328125 63.359375 Z M 24.328125 63.359375 " fill-opacity="1" fill-rule="nonzero"/><path fill="#ebab0a" d="M 18.683594 60.101562 L 15.863281 58.46875 C 15.605469 58.316406 15.277344 58.40625 15.125 58.667969 C 14.976562 58.925781 15.066406 59.257812 15.324219 59.410156 L 18.144531 61.039062 C 18.230469 61.089844 18.324219 61.113281 18.414062 61.113281 C 18.601562 61.113281 18.785156 61.015625 18.882812 60.84375 C 19.03125 60.582031 18.945312 60.25 18.683594 60.101562 Z M 18.683594 60.101562 " fill-opacity="1" fill-rule="nonzero"/><path fill="#ebab0a" d="M 23.789062 86.078125 L 21.117188 87.621094 C 20.859375 87.773438 20.769531 88.105469 20.917969 88.363281 C 21.019531 88.539062 21.199219 88.632812 21.386719 88.632812 C 21.480469 88.632812 21.570312 88.613281 21.65625 88.5625 L 24.328125 87.015625 C 24.585938 86.867188 24.675781 86.535156 24.523438 86.277344 C 24.375 86.015625 24.042969 85.925781 23.789062 86.078125 Z M 23.789062 86.078125 " fill-opacity="1" fill-rule="nonzero"/><path fill="#ebab0a" d="M 18.144531 89.335938 L 15.324219 90.96875 C 15.066406 91.117188 14.976562 91.449219 15.125 91.710938 C 15.226562 91.882812 15.40625 91.980469 15.59375 91.980469 C 15.6875 91.980469 15.777344 91.957031 15.863281 91.90625 L 18.683594 90.277344 C 18.945312 90.125 19.03125 89.792969 18.882812 89.535156 C 18.734375 89.273438 18.402344 89.1875 18.144531 89.335938 Z M 18.144531 89.335938 " fill-opacity="1" fill-rule="nonzero"/><path fill="#ebab0a" d="M 43.808594 98.003906 C 43.507812 98.003906 43.265625 98.25 43.265625 98.546875 L 43.265625 101.390625 C 43.265625 101.6875 43.507812 101.933594 43.808594 101.933594 C 44.105469 101.933594 44.347656 101.6875 44.347656 101.390625 L 44.347656 98.546875 C 44.347656 98.25 44.105469 98.003906 43.808594 98.003906 Z M 43.808594 98.003906 " fill-opacity="1" fill-rule="nonzero"/><g clip-path="url(#d2a1f66637)"><path fill="#ebab0a" d="M 43.808594 103.695312 C 43.507812 103.695312 43.265625 103.9375 43.265625 104.238281 L 43.265625 107.078125 C 43.265625 107.378906 43.507812 107.621094 43.808594 107.621094 C 44.105469 107.621094 44.347656 107.378906 44.347656 107.078125 L 44.347656 104.238281 C 44.347656 103.9375 44.105469 103.695312 43.808594 103.695312 Z M 43.808594 103.695312 " fill-opacity="1" fill-rule="nonzero"/></g><path fill="#ebab0a" d="M 74.839844 98.003906 C 74.542969 98.003906 74.300781 98.25 74.300781 98.546875 L 74.300781 101.390625 C 74.300781 101.6875 74.542969 101.933594 74.839844 101.933594 C 75.140625 101.933594 75.382812 101.6875 75.382812 101.390625 L 75.382812 98.546875 C 75.382812 98.25 75.140625 98.003906 74.839844 98.003906 Z M 74.839844 98.003906 " fill-opacity="1" fill-rule="nonzero"/><g clip-path="url(#990611660d)"><path fill="#ebab0a" d="M 74.839844 103.695312 C 74.542969 103.695312 74.300781 103.9375 74.300781 104.238281 L 74.300781 107.078125 C 74.300781 107.378906 74.542969 107.621094 74.839844 107.621094 C 75.140625 107.621094 75.382812 107.378906 75.382812 107.078125 L 75.382812 104.238281 C 75.382812 103.9375 75.140625 103.695312 74.839844 103.695312 Z M 74.839844 103.695312 " fill-opacity="1" fill-rule="nonzero"/></g><g clip-path="url(#798da2f019)"><path fill="#ebab0a" d="M 43.808594 46.46875 C 44.105469 46.46875 44.347656 46.226562 44.347656 45.929688 L 44.347656 43.085938 C 44.347656 42.789062 44.105469 42.542969 43.808594 42.542969 C 43.507812 42.542969 43.265625 42.789062 43.265625 43.085938 L 43.265625 45.929688 C 43.265625 46.226562 43.507812 46.46875 43.808594 46.46875 Z M 43.808594 46.46875 " fill-opacity="1" fill-rule="nonzero"/></g><path fill="#ebab0a" d="M 43.808594 52.164062 C 44.105469 52.164062 44.347656 51.921875 44.347656 51.621094 L 44.347656 48.773438 C 44.347656 48.476562 44.105469 48.234375 43.808594 48.234375 C 43.507812 48.234375 43.265625 48.476562 43.265625 48.773438 L 43.265625 51.621094 C 43.265625 51.921875 43.507812 52.164062 43.808594 52.164062 Z M 43.808594 52.164062 " fill-opacity="1" fill-rule="nonzero"/><g clip-path="url(#a275635a21)"><path fill="#ebab0a" d="M 74.839844 46.46875 C 75.140625 46.46875 75.382812 46.226562 75.382812 45.929688 L 75.382812 43.085938 C 75.382812 42.789062 75.140625 42.542969 74.839844 42.542969 C 74.542969 42.542969 74.300781 42.789062 74.300781 43.085938 L 74.300781 45.929688 C 74.300781 46.226562 74.542969 46.46875 74.839844 46.46875 Z M 74.839844 46.46875 " fill-opacity="1" fill-rule="nonzero"/></g><path fill="#ebab0a" d="M 74.839844 52.164062 C 75.140625 52.164062 75.382812 51.921875 75.382812 51.621094 L 75.382812 48.773438 C 75.382812 48.476562 75.140625 48.234375 74.839844 48.234375 C 74.542969 48.234375 74.300781 48.476562 74.300781 48.773438 L 74.300781 51.621094 C 74.300781 51.921875 74.542969 52.164062 74.839844 52.164062 Z M 74.839844 52.164062 " fill-opacity="1" fill-rule="nonzero"/><g clip-path="url(#1e439f5b3c)"><path fill="#ebab0a" d="M 82.332031 87.902344 L 77.445312 90.726562 C 76.8125 89.945312 75.859375 89.476562 74.839844 89.476562 C 73.828125 89.476562 72.875 89.945312 72.238281 90.726562 L 62.375 85.03125 C 62.578125 84.585938 62.6875 84.109375 62.6875 83.617188 C 62.6875 81.9375 61.464844 80.539062 59.867188 80.277344 L 59.867188 69.894531 C 61.464844 69.632812 62.6875 68.234375 62.6875 66.550781 C 62.6875 66.058594 62.578125 65.582031 62.375 65.140625 L 72.234375 59.445312 C 72.851562 60.207031 73.792969 60.695312 74.84375 60.695312 C 75.894531 60.695312 76.832031 60.207031 77.449219 59.445312 L 82.332031 62.265625 C 82.417969 62.316406 82.511719 62.339844 82.601562 62.339844 C 82.789062 62.339844 82.96875 62.242188 83.070312 62.066406 C 83.21875 61.808594 83.128906 61.476562 82.871094 61.324219 L 77.984375 58.5 C 78.125 58.128906 78.203125 57.730469 78.203125 57.3125 C 78.203125 55.441406 76.695312 53.921875 74.84375 53.921875 C 72.988281 53.921875 71.480469 55.441406 71.480469 57.3125 C 71.480469 57.730469 71.5625 58.128906 71.699219 58.5 L 61.773438 64.238281 C 61.144531 63.5625 60.261719 63.167969 59.328125 63.167969 C 58.394531 63.167969 57.511719 63.5625 56.878906 64.238281 L 46.949219 58.5 C 47.089844 58.121094 47.167969 57.71875 47.167969 57.3125 C 47.167969 55.441406 45.660156 53.921875 43.808594 53.921875 C 41.953125 53.921875 40.445312 55.441406 40.445312 57.3125 C 40.445312 57.71875 40.527344 58.121094 40.667969 58.5 L 30.738281 64.238281 C 30.109375 63.5625 29.226562 63.167969 28.289062 63.167969 C 26.433594 63.167969 24.925781 64.683594 24.925781 66.550781 C 24.925781 68.234375 26.152344 69.628906 27.746094 69.894531 L 27.746094 80.277344 C 26.152344 80.539062 24.925781 81.933594 24.925781 83.617188 C 24.925781 85.484375 26.433594 87.003906 28.289062 87.003906 C 29.222656 87.003906 30.105469 86.609375 30.738281 85.933594 L 40.664062 91.667969 C 40.523438 92.046875 40.445312 92.449219 40.445312 92.859375 C 40.445312 94.726562 41.953125 96.242188 43.808594 96.242188 C 45.660156 96.242188 47.167969 94.726562 47.167969 92.859375 C 47.167969 92.449219 47.089844 92.046875 46.949219 91.667969 L 56.878906 85.933594 C 57.515625 86.609375 58.398438 87.003906 59.328125 87.003906 C 60.257812 87.003906 61.136719 86.609375 61.769531 85.933594 L 71.699219 91.667969 C 71.558594 92.046875 71.480469 92.449219 71.480469 92.859375 C 71.480469 94.726562 72.988281 96.242188 74.839844 96.242188 C 76.695312 96.242188 78.203125 94.726562 78.203125 92.859375 C 78.203125 92.449219 78.125 92.046875 77.984375 91.667969 L 82.871094 88.84375 C 83.128906 88.695312 83.21875 88.363281 83.070312 88.101562 C 82.921875 87.84375 82.589844 87.753906 82.332031 87.902344 Z M 46.410156 90.726562 C 45.777344 89.945312 44.820312 89.476562 43.808594 89.476562 C 42.796875 89.476562 41.839844 89.945312 41.207031 90.726562 L 31.34375 85.03125 C 31.546875 84.589844 31.65625 84.113281 31.65625 83.617188 C 31.65625 81.933594 30.429688 80.539062 28.828125 80.277344 L 28.828125 69.894531 C 30.429688 69.632812 31.65625 68.234375 31.65625 66.550781 C 31.65625 66.054688 31.546875 65.578125 31.34375 65.140625 L 41.207031 59.441406 C 41.839844 60.222656 42.792969 60.695312 43.808594 60.695312 C 44.824219 60.695312 45.777344 60.222656 46.410156 59.441406 L 56.273438 65.140625 C 56.074219 65.578125 55.96875 66.054688 55.96875 66.550781 C 55.96875 68.234375 57.191406 69.628906 58.789062 69.894531 L 58.789062 80.277344 C 57.191406 80.539062 55.96875 81.933594 55.96875 83.617188 C 55.96875 84.109375 56.074219 84.585938 56.277344 85.027344 Z M 46.410156 90.726562 " fill-opacity="1" fill-rule="nonzero"/></g><path fill="#ebab0a" d="M 64.53125 80.996094 C 64.273438 80.847656 63.941406 80.9375 63.792969 81.195312 C 63.644531 81.453125 63.734375 81.785156 63.992188 81.9375 L 73.871094 87.640625 C 73.953125 87.6875 74.046875 87.710938 74.136719 87.710938 C 74.324219 87.710938 74.507812 87.613281 74.609375 87.441406 C 74.757812 87.179688 74.667969 86.851562 74.410156 86.699219 Z M 64.53125 80.996094 " fill-opacity="1" fill-rule="nonzero"/><path fill="#6f9d26" d="M 182.140625 62.53125 L 192.695312 68.625 C 192.953125 68.773438 193.042969 69.105469 192.890625 69.367188 C 192.792969 69.539062 192.609375 69.636719 192.421875 69.636719 C 192.332031 69.636719 192.238281 69.613281 192.15625 69.566406 L 181.601562 63.46875 C 181.34375 63.320312 181.253906 62.988281 181.402344 62.730469 C 181.550781 62.46875 181.878906 62.382812 182.140625 62.53125 Z M 182.140625 62.53125 " fill-opacity="1" fill-rule="nonzero"/><path fill="#6f9d26" d="M 201.351562 63.359375 L 204.019531 61.8125 C 204.28125 61.664062 204.609375 61.753906 204.757812 62.011719 C 204.90625 62.273438 204.820312 62.605469 204.558594 62.753906 L 201.890625 64.300781 C 201.804688 64.347656 201.714844 64.371094 201.621094 64.371094 C 201.433594 64.371094 201.253906 64.277344 201.152344 64.101562 C 201.003906 63.839844 201.09375 63.507812 201.351562 63.359375 Z M 201.351562 63.359375 " fill-opacity="1" fill-rule="nonzero"/><g clip-path="url(#e9554f0851)"><path fill="#6f9d26" d="M 206.992188 60.101562 L 209.8125 58.46875 C 210.070312 58.316406 210.402344 58.40625 210.550781 58.667969 C 210.699219 58.925781 210.613281 59.257812 210.351562 59.410156 L 207.53125 61.039062 C 207.449219 61.089844 207.355469 61.113281 207.261719 61.113281 C 207.074219 61.113281 206.894531 61.015625 206.792969 60.84375 C 206.644531 60.582031 206.734375 60.25 206.992188 60.101562 Z M 206.992188 60.101562 " fill-opacity="1" fill-rule="nonzero"/></g><path fill="#6f9d26" d="M 201.890625 86.078125 L 204.558594 87.621094 C 204.820312 87.773438 204.90625 88.105469 204.757812 88.363281 C 204.660156 88.539062 204.476562 88.632812 204.289062 88.632812 C 204.199219 88.632812 204.105469 88.613281 204.019531 88.5625 L 201.351562 87.015625 C 201.09375 86.867188 201.003906 86.535156 201.152344 86.277344 C 201.300781 86.015625 201.632812 85.925781 201.890625 86.078125 Z M 201.890625 86.078125 " fill-opacity="1" fill-rule="nonzero"/><g clip-path="url(#3f61286523)"><path fill="#6f9d26" d="M 207.53125 89.335938 L 210.351562 90.96875 C 210.613281 91.117188 210.699219 91.449219 210.550781 91.710938 C 210.453125 91.882812 210.269531 91.980469 210.082031 91.980469 C 209.992188 91.980469 209.898438 91.957031 209.8125 91.90625 L 206.992188 90.277344 C 206.734375 90.125 206.644531 89.792969 206.792969 89.535156 C 206.945312 89.273438 207.273438 89.1875 207.53125 89.335938 Z M 207.53125 89.335938 " fill-opacity="1" fill-rule="nonzero"/></g><path fill="#6f9d26" d="M 181.871094 98.003906 C 182.167969 98.003906 182.410156 98.25 182.410156 98.546875 L 182.410156 101.390625 C 182.410156 101.6875 182.167969 101.933594 181.871094 101.933594 C 181.570312 101.933594 181.328125 101.6875 181.328125 101.390625 L 181.328125 98.546875 C 181.328125 98.25 181.570312 98.003906 181.871094 98.003906 Z M 181.871094 98.003906 " fill-opacity="1" fill-rule="nonzero"/><g clip-path="url(#69efc8abe4)"><path fill="#6f9d26" d="M 181.871094 103.695312 C 182.167969 103.695312 182.410156 103.9375 182.410156 104.238281 L 182.410156 107.078125 C 182.410156 107.378906 182.167969 107.621094 181.871094 107.621094 C 181.570312 107.621094 181.328125 107.378906 181.328125 107.078125 L 181.328125 104.238281 C 181.328125 103.9375 181.570312 103.695312 181.871094 103.695312 Z M 181.871094 103.695312 " fill-opacity="1" fill-rule="nonzero"/></g><path fill="#6f9d26" d="M 150.835938 98.003906 C 151.132812 98.003906 151.375 98.25 151.375 98.546875 L 151.375 101.390625 C 151.375 101.6875 151.132812 101.933594 150.835938 101.933594 C 150.539062 101.933594 150.296875 101.6875 150.296875 101.390625 L 150.296875 98.546875 C 150.296875 98.25 150.539062 98.003906 150.835938 98.003906 Z M 150.835938 98.003906 " fill-opacity="1" fill-rule="nonzero"/><g clip-path="url(#771f33bdde)"><path fill="#6f9d26" d="M 150.835938 103.695312 C 151.132812 103.695312 151.375 103.9375 151.375 104.238281 L 151.375 107.078125 C 151.375 107.378906 151.132812 107.621094 150.835938 107.621094 C 150.539062 107.621094 150.296875 107.378906 150.296875 107.078125 L 150.296875 104.238281 C 150.296875 103.9375 150.539062 103.695312 150.835938 103.695312 Z M 150.835938 103.695312 " fill-opacity="1" fill-rule="nonzero"/></g><g clip-path="url(#fd2e008632)"><path fill="#6f9d26" d="M 181.871094 46.46875 C 181.570312 46.46875 181.328125 46.226562 181.328125 45.929688 L 181.328125 43.085938 C 181.328125 42.789062 181.570312 42.542969 181.871094 42.542969 C 182.167969 42.542969 182.410156 42.789062 182.410156 43.085938 L 182.410156 45.929688 C 182.410156 46.226562 182.167969 46.46875 181.871094 46.46875 Z M 181.871094 46.46875 " fill-opacity="1" fill-rule="nonzero"/></g><path fill="#6f9d26" d="M 181.871094 52.164062 C 181.570312 52.164062 181.328125 51.921875 181.328125 51.621094 L 181.328125 48.773438 C 181.328125 48.476562 181.570312 48.234375 181.871094 48.234375 C 182.167969 48.234375 182.410156 48.476562 182.410156 48.773438 L 182.410156 51.621094 C 182.410156 51.921875 182.167969 52.164062 181.871094 52.164062 Z M 181.871094 52.164062 " fill-opacity="1" fill-rule="nonzero"/><g clip-path="url(#5d29e31801)"><path fill="#6f9d26" d="M 150.835938 46.46875 C 150.539062 46.46875 150.296875 46.226562 150.296875 45.929688 L 150.296875 43.085938 C 150.296875 42.789062 150.539062 42.542969 150.835938 42.542969 C 151.132812 42.542969 151.375 42.789062 151.375 43.085938 L 151.375 45.929688 C 151.375 46.226562 151.132812 46.46875 150.835938 46.46875 Z M 150.835938 46.46875 " fill-opacity="1" fill-rule="nonzero"/></g><path fill="#6f9d26" d="M 150.835938 52.164062 C 150.539062 52.164062 150.296875 51.921875 150.296875 51.621094 L 150.296875 48.773438 C 150.296875 48.476562 150.539062 48.234375 150.835938 48.234375 C 151.132812 48.234375 151.375 48.476562 151.375 48.773438 L 151.375 51.621094 C 151.375 51.921875 151.132812 52.164062 150.835938 52.164062 Z M 150.835938 52.164062 " fill-opacity="1" fill-rule="nonzero"/><g clip-path="url(#86921d97c0)"><path fill="#6f9d26" d="M 143.347656 87.902344 L 148.230469 90.726562 C 148.863281 89.945312 149.816406 89.476562 150.835938 89.476562 C 151.847656 89.476562 152.804688 89.945312 153.441406 90.726562 L 163.304688 85.03125 C 163.097656 84.585938 162.988281 84.109375 162.988281 83.617188 C 162.988281 81.9375 164.214844 80.539062 165.808594 80.277344 L 165.808594 69.894531 C 164.214844 69.632812 162.988281 68.234375 162.988281 66.550781 C 162.988281 66.058594 163.097656 65.582031 163.300781 65.140625 L 153.441406 59.445312 C 152.824219 60.207031 151.886719 60.695312 150.835938 60.695312 C 149.785156 60.695312 148.847656 60.207031 148.230469 59.445312 L 143.34375 62.265625 C 143.261719 62.316406 143.167969 62.339844 143.078125 62.339844 C 142.890625 62.339844 142.707031 62.242188 142.609375 62.066406 C 142.457031 61.808594 142.546875 61.476562 142.804688 61.324219 L 147.695312 58.5 C 147.554688 58.128906 147.476562 57.730469 147.476562 57.3125 C 147.476562 55.441406 148.980469 53.921875 150.835938 53.921875 C 152.6875 53.921875 154.195312 55.441406 154.195312 57.3125 C 154.195312 57.730469 154.117188 58.128906 153.976562 58.5 L 163.90625 64.238281 C 164.535156 63.5625 165.414062 63.167969 166.351562 63.167969 C 167.285156 63.167969 168.167969 63.5625 168.800781 64.238281 L 178.730469 58.5 C 178.589844 58.121094 178.507812 57.71875 178.507812 57.3125 C 178.507812 55.441406 180.015625 53.921875 181.871094 53.921875 C 183.722656 53.921875 185.230469 55.441406 185.230469 57.3125 C 185.230469 57.71875 185.152344 58.121094 185.011719 58.5 L 194.941406 64.238281 C 195.570312 63.5625 196.453125 63.167969 197.390625 63.167969 C 199.242188 63.167969 200.75 64.683594 200.75 66.550781 C 200.75 68.234375 199.527344 69.628906 197.929688 69.894531 L 197.929688 80.277344 C 199.527344 80.539062 200.75 81.933594 200.75 83.617188 C 200.75 85.484375 199.242188 87.003906 197.390625 87.003906 C 196.453125 87.003906 195.570312 86.609375 194.941406 85.933594 L 185.011719 91.667969 C 185.152344 92.046875 185.230469 92.449219 185.230469 92.859375 C 185.230469 94.726562 183.722656 96.242188 181.871094 96.242188 C 180.015625 96.242188 178.507812 94.726562 178.507812 92.859375 C 178.507812 92.449219 178.585938 92.046875 178.730469 91.667969 L 168.796875 85.933594 C 168.164062 86.609375 167.28125 87.003906 166.351562 87.003906 C 165.417969 87.003906 164.539062 86.609375 163.90625 85.933594 L 153.980469 91.667969 C 154.121094 92.046875 154.199219 92.449219 154.199219 92.859375 C 154.199219 94.726562 152.691406 96.242188 150.835938 96.242188 C 148.984375 96.242188 147.476562 94.726562 147.476562 92.859375 C 147.476562 92.449219 147.554688 92.046875 147.695312 91.667969 L 142.808594 88.84375 C 142.546875 88.695312 142.460938 88.363281 142.609375 88.101562 C 142.757812 87.84375 143.085938 87.753906 143.347656 87.902344 Z M 179.265625 90.726562 C 179.902344 89.945312 180.855469 89.476562 181.871094 89.476562 C 182.882812 89.476562 183.835938 89.945312 184.472656 90.726562 L 194.335938 85.03125 C 194.132812 84.589844 194.023438 84.113281 194.023438 83.617188 C 194.023438 81.933594 195.25 80.539062 196.847656 80.277344 L 196.847656 69.894531 C 195.25 69.632812 194.023438 68.234375 194.023438 66.550781 C 194.023438 66.054688 194.132812 65.578125 194.332031 65.140625 L 184.472656 59.441406 C 183.839844 60.222656 182.886719 60.695312 181.871094 60.695312 C 180.851562 60.695312 179.898438 60.222656 179.269531 59.441406 L 169.402344 65.140625 C 169.601562 65.578125 169.710938 66.054688 169.710938 66.550781 C 169.710938 68.234375 168.488281 69.628906 166.890625 69.894531 L 166.890625 80.277344 C 168.488281 80.539062 169.710938 81.933594 169.710938 83.617188 C 169.710938 84.109375 169.601562 84.585938 169.402344 85.027344 Z M 179.265625 90.726562 " fill-opacity="1" fill-rule="nonzero"/></g><path fill="#6f9d26" d="M 161.148438 80.996094 C 161.40625 80.847656 161.738281 80.9375 161.886719 81.195312 C 162.035156 81.453125 161.945312 81.785156 161.6875 81.9375 L 151.808594 87.640625 C 151.722656 87.6875 151.628906 87.710938 151.539062 87.710938 C 151.351562 87.710938 151.171875 87.613281 151.070312 87.441406 C 150.921875 87.179688 151.011719 86.851562 151.269531 86.699219 Z M 161.148438 80.996094 " fill-opacity="1" fill-rule="nonzero"/><g clip-path="url(#bfcfc97696)"><path fill="#b6320f" d="M 151.734375 74.929688 C 151.734375 70.585938 148.742188 66.375 143.308594 63.03125 C 145.277344 57.03125 145.300781 52.019531 143.378906 48.472656 C 143.847656 47.855469 144.113281 47.109375 144.113281 46.324219 C 144.113281 44.34375 142.507812 42.738281 140.535156 42.738281 C 139.511719 42.738281 138.546875 43.175781 137.867188 43.929688 C 134.488281 42.796875 130.0625 43.074219 125.007812 44.730469 C 121.664062 39.296875 117.457031 36.304688 113.109375 36.304688 C 108.765625 36.304688 104.554688 39.300781 101.210938 44.734375 C 93.835938 42.308594 87.894531 42.851562 84.460938 46.285156 C 83.074219 47.675781 82.15625 49.480469 81.71875 51.644531 C 79.75 51.652344 78.152344 53.257812 78.152344 55.230469 C 78.152344 57.207031 79.757812 58.8125 81.734375 58.8125 C 81.761719 58.8125 81.792969 58.808594 81.820312 58.808594 C 82.070312 60.160156 82.433594 61.574219 82.910156 63.03125 C 77.476562 66.375 74.484375 70.585938 74.484375 74.929688 C 74.484375 79.277344 77.480469 83.488281 82.914062 86.828125 C 80.492188 94.207031 81.03125 100.144531 84.464844 103.578125 C 86.488281 105.601562 89.378906 106.625 92.925781 106.625 C 95.394531 106.625 98.183594 106.121094 101.210938 105.125 C 104.554688 110.5625 108.765625 113.554688 113.109375 113.554688 C 117.457031 113.554688 121.667969 110.5625 125.007812 105.128906 C 128.039062 106.121094 130.824219 106.625 133.292969 106.625 C 136.839844 106.625 139.734375 105.601562 141.757812 103.578125 C 145.191406 100.144531 145.730469 94.207031 143.304688 86.828125 C 148.742188 83.488281 151.734375 79.277344 151.734375 74.929688 Z M 127.871094 95.742188 C 127.546875 95.652344 127.210938 95.597656 126.875 95.597656 C 124.898438 95.597656 123.289062 97.203125 123.289062 99.179688 C 123.289062 100.511719 124.046875 101.71875 125.183594 102.332031 C 124.941406 102.800781 124.703125 103.234375 124.46875 103.644531 C 121.195312 102.484375 117.757812 100.777344 114.234375 98.566406 C 116.492188 97.058594 118.730469 95.382812 120.90625 93.570312 C 123.664062 93.289062 126.328125 92.863281 128.851562 92.3125 C 128.558594 93.488281 128.226562 94.636719 127.871094 95.742188 Z M 101.761719 103.640625 C 99.96875 100.515625 98.464844 96.628906 97.375 92.3125 C 99.898438 92.863281 102.558594 93.289062 105.316406 93.570312 C 107.488281 95.382812 109.730469 97.054688 111.988281 98.566406 C 108.46875 100.777344 105.035156 102.480469 101.761719 103.640625 Z M 101.761719 46.21875 C 105.046875 47.382812 108.480469 49.089844 111.992188 51.300781 C 109.765625 52.78125 107.527344 54.453125 105.316406 56.292969 C 102.5625 56.570312 99.898438 56.996094 97.375 57.550781 C 98.464844 53.234375 99.96875 49.34375 101.761719 46.21875 Z M 124.460938 46.21875 C 126.253906 49.34375 127.757812 53.234375 128.847656 57.550781 C 126.324219 56.996094 123.660156 56.570312 120.90625 56.292969 C 118.710938 54.460938 116.472656 52.789062 114.242188 51.300781 C 117.757812 49.085938 121.191406 47.378906 124.460938 46.21875 Z M 122.566406 92.144531 C 123.925781 90.945312 125.265625 89.6875 126.566406 88.386719 C 127.875 87.078125 129.128906 85.738281 130.324219 84.382812 C 130.039062 86.667969 129.652344 88.878906 129.167969 90.988281 C 127.0625 91.46875 124.851562 91.859375 122.566406 92.144531 Z M 97.054688 90.988281 C 96.566406 88.855469 96.175781 86.644531 95.894531 84.375 C 97.097656 85.742188 98.355469 87.085938 99.65625 88.386719 C 100.957031 89.683594 102.296875 90.945312 103.65625 92.144531 C 101.371094 91.859375 99.160156 91.46875 97.054688 90.988281 Z M 103.660156 57.714844 C 102.316406 58.902344 100.976562 60.160156 99.65625 61.476562 C 98.355469 62.773438 97.097656 64.113281 95.898438 65.476562 C 96.183594 63.191406 96.570312 60.980469 97.054688 58.875 C 99.160156 58.390625 101.371094 58.003906 103.660156 57.714844 Z M 105.8125 92.386719 C 104.007812 90.863281 102.230469 89.226562 100.523438 87.519531 C 98.820312 85.816406 97.183594 84.03125 95.65625 82.214844 C 95.429688 79.851562 95.3125 77.402344 95.3125 74.929688 C 95.3125 72.457031 95.429688 70.003906 95.65625 67.632812 C 97.179688 65.828125 98.816406 64.050781 100.523438 62.34375 C 102.265625 60.605469 104.046875 58.96875 105.8125 57.476562 C 108.183594 57.25 110.636719 57.132812 113.109375 57.132812 C 115.585938 57.132812 118.039062 57.25 120.410156 57.476562 C 122.214844 59 123.992188 60.636719 125.699219 62.34375 C 127.40625 64.050781 129.042969 65.828125 130.566406 67.632812 C 130.792969 70.003906 130.910156 72.457031 130.910156 74.929688 C 130.910156 77.425781 130.789062 79.875 130.5625 82.226562 C 129.054688 84.019531 127.421875 85.796875 125.699219 87.519531 C 123.992188 89.226562 122.210938 90.863281 120.40625 92.386719 C 115.660156 92.835938 110.558594 92.835938 105.8125 92.386719 Z M 94.285156 80.542969 C 92.796875 78.683594 91.429688 76.800781 90.203125 74.925781 C 91.433594 73.050781 92.800781 71.167969 94.285156 69.308594 C 94.152344 71.152344 94.085938 73.035156 94.085938 74.929688 C 94.085938 76.824219 94.152344 78.703125 94.285156 80.542969 Z M 131.9375 69.308594 C 133.410156 71.15625 134.777344 73.039062 136.023438 74.929688 C 134.773438 76.828125 133.40625 78.710938 131.933594 80.550781 C 132.066406 78.71875 132.132812 76.835938 132.132812 74.929688 C 132.136719 73.035156 132.066406 71.152344 131.9375 69.308594 Z M 126.566406 61.476562 C 125.265625 60.175781 123.925781 58.917969 122.5625 57.71875 C 124.851562 58.003906 127.0625 58.390625 129.167969 58.875 C 129.652344 60.980469 130.039062 63.191406 130.324219 65.476562 C 129.125 64.113281 127.867188 62.773438 126.566406 61.476562 Z M 118.734375 56.105469 C 115.039062 55.84375 111.1875 55.84375 107.492188 56.105469 C 109.363281 54.613281 111.246094 53.246094 113.117188 52.023438 C 114.992188 53.253906 116.875 54.621094 118.734375 56.105469 Z M 94.472656 67.136719 C 92.640625 69.332031 90.96875 71.570312 89.480469 73.800781 C 87.277344 70.308594 85.570312 66.878906 84.394531 63.582031 C 87.527344 61.785156 91.417969 60.28125 95.730469 59.195312 C 95.175781 61.71875 94.75 64.378906 94.472656 67.136719 Z M 89.480469 76.050781 C 90.964844 78.28125 92.636719 80.519531 94.472656 82.714844 C 94.742188 85.445312 95.171875 88.109375 95.730469 90.667969 C 91.414062 89.578125 87.527344 88.074219 84.398438 86.28125 C 85.566406 82.996094 87.269531 79.5625 89.480469 76.050781 Z M 107.488281 93.757812 C 109.335938 93.886719 111.21875 93.953125 113.109375 93.953125 C 115.003906 93.953125 116.886719 93.886719 118.734375 93.757812 C 116.886719 95.230469 115.003906 96.597656 113.109375 97.84375 C 111.21875 96.597656 109.335938 95.226562 107.488281 93.757812 Z M 131.742188 82.726562 C 133.554688 80.558594 135.230469 78.320312 136.746094 76.054688 C 138.957031 79.574219 140.660156 83.007812 141.824219 86.28125 C 138.695312 88.074219 134.808594 89.578125 130.492188 90.667969 C 131.046875 88.136719 131.472656 85.476562 131.742188 82.726562 Z M 136.746094 73.808594 C 135.238281 71.550781 133.5625 69.3125 131.75 67.136719 C 131.472656 64.378906 131.042969 61.71875 130.492188 59.195312 C 134.808594 60.285156 138.695312 61.789062 141.824219 63.578125 C 140.660156 66.851562 138.957031 70.289062 136.746094 73.808594 Z M 137.210938 45.003906 C 137.042969 45.421875 136.949219 45.867188 136.949219 46.324219 C 136.949219 48.296875 138.558594 49.902344 140.535156 49.902344 C 141.226562 49.902344 141.886719 49.707031 142.453125 49.34375 C 144.007812 52.492188 143.925781 57.074219 142.222656 62.398438 C 138.890625 60.519531 134.757812 58.957031 130.1875 57.855469 C 129.082031 53.28125 127.519531 49.148438 125.640625 45.816406 C 130.199219 44.355469 134.171875 44.074219 137.210938 45.003906 Z M 113.109375 37.53125 C 116.953125 37.53125 120.738281 40.234375 123.824219 45.144531 C 120.386719 46.390625 116.792969 48.203125 113.117188 50.558594 C 109.445312 48.207031 105.847656 46.394531 102.398438 45.144531 C 105.484375 40.234375 109.265625 37.53125 113.109375 37.53125 Z M 85.328125 47.148438 C 88.382812 44.097656 93.78125 43.636719 100.578125 45.820312 C 98.703125 49.152344 97.136719 53.285156 96.035156 57.855469 C 91.46875 58.957031 87.335938 60.519531 83.996094 62.398438 C 83.574219 61.074219 83.246094 59.792969 83.023438 58.570312 C 84.378906 58.046875 85.3125 56.730469 85.3125 55.234375 C 85.3125 53.679688 84.339844 52.34375 82.925781 51.851562 C 83.320312 49.945312 84.121094 48.363281 85.328125 47.148438 Z M 75.710938 74.929688 C 75.710938 71.089844 78.410156 67.304688 83.320312 64.21875 C 84.578125 67.679688 86.398438 71.277344 88.738281 74.925781 C 86.390625 78.59375 84.574219 82.195312 83.328125 85.640625 C 78.414062 82.558594 75.710938 78.773438 75.710938 74.929688 Z M 85.328125 102.710938 C 82.277344 99.660156 81.820312 94.261719 84 87.464844 C 87.332031 89.339844 91.464844 90.902344 96.035156 92.007812 C 97.136719 96.578125 98.699219 100.710938 100.578125 104.042969 C 93.78125 106.222656 88.382812 105.761719 85.328125 102.710938 Z M 113.109375 112.328125 C 109.265625 112.328125 105.484375 109.628906 102.398438 104.714844 C 105.835938 103.472656 109.429688 101.660156 113.109375 99.308594 C 116.792969 101.660156 120.386719 103.472656 123.824219 104.714844 C 120.738281 109.628906 116.957031 112.328125 113.109375 112.328125 Z M 140.890625 102.710938 C 137.84375 105.761719 132.445312 106.222656 125.652344 104.046875 C 125.882812 103.632812 126.117188 103.195312 126.355469 102.726562 C 126.527344 102.753906 126.699219 102.765625 126.875 102.765625 C 128.847656 102.765625 130.457031 101.15625 130.457031 99.179688 C 130.457031 98.019531 129.902344 96.953125 128.984375 96.285156 C 129.433594 94.914062 129.835938 93.480469 130.191406 92.007812 C 134.757812 90.902344 138.890625 89.339844 142.222656 87.464844 C 144.402344 94.261719 143.945312 99.660156 140.890625 102.710938 Z M 142.894531 85.640625 C 141.652344 82.207031 139.839844 78.609375 137.488281 74.929688 C 139.839844 71.25 141.652344 67.652344 142.894531 64.21875 C 147.808594 67.304688 150.511719 71.085938 150.511719 74.929688 C 150.511719 78.773438 147.808594 82.554688 142.894531 85.640625 Z M 142.894531 85.640625 " fill-opacity="1" fill-rule="nonzero"/></g><path fill="#b6320f" d="M 121.441406 73.148438 C 121.441406 68.550781 117.707031 64.816406 113.109375 64.816406 C 108.515625 64.816406 104.777344 68.550781 104.777344 73.148438 C 104.777344 77.746094 108.515625 81.484375 113.109375 81.484375 C 117.707031 81.484375 121.441406 77.746094 121.441406 73.148438 Z M 121.441406 73.148438 " fill-opacity="1" fill-rule="nonzero"/><g fill="#053b84" fill-opacity="1"><g transform="translate(213.140733, 84.940235)"><g><path d="M 2.210938 0 L 16.878906 0 L 16.878906 -4.929688 L 8.1875 -4.929688 L 8.1875 -8.15625 L 15.742188 -8.15625 L 15.742188 -12.996094 L 8.1875 -12.996094 L 8.1875 -16.042969 L 16.550781 -16.042969 L 16.550781 -20.914062 L 2.210938 -20.914062 Z M 2.210938 0 "/></g></g></g><g fill="#053b84" fill-opacity="1"><g transform="translate(231.357258, 84.940235)"><g><path d="M 2 0 L 7.738281 0 L 7.738281 -22.109375 L 2 -22.109375 Z M 2 0 "/></g></g></g><g fill="#053b84" fill-opacity="1"><g transform="translate(241.092653, 84.940235)"><g><path d="M 9.859375 0.449219 C 13.953125 0.449219 17.089844 -1.582031 18.492188 -5.109375 L 12.9375 -5.109375 C 12.308594 -4.363281 11.203125 -3.882812 9.976562 -3.882812 C 8.363281 -3.882812 7.019531 -4.75 6.601562 -6.484375 L 18.792969 -6.484375 C 19.089844 -12.367188 15.535156 -16.253906 9.886719 -16.253906 C 4.601562 -16.253906 0.925781 -12.847656 0.925781 -7.917969 C 0.925781 -2.957031 4.570312 0.449219 9.859375 0.449219 Z M 6.632812 -9.589844 C 7.109375 -11.113281 8.363281 -11.949219 9.949219 -11.949219 C 11.679688 -11.949219 12.847656 -11.054688 13.324219 -9.589844 Z M 6.632812 -9.589844 "/></g></g></g><g fill="#053b84" fill-opacity="1"><g transform="translate(260.772479, 84.940235)"><g><path d="M 2 0 L 7.738281 0 L 7.738281 -8.695312 C 7.738281 -10.457031 8.664062 -11.5 10.1875 -11.5 C 11.652344 -11.5 12.546875 -10.457031 12.546875 -8.753906 L 12.546875 0 L 18.195312 0 L 18.195312 -8.695312 C 18.195312 -10.457031 19.121094 -11.5 20.644531 -11.5 C 22.109375 -11.5 23.003906 -10.457031 23.003906 -8.753906 L 23.003906 0 L 28.738281 0 L 28.738281 -9.320312 C 28.738281 -13.59375 26.140625 -16.253906 22.109375 -16.253906 C 19.71875 -16.253906 17.777344 -15.355469 16.550781 -13.800781 C 15.414062 -15.386719 13.621094 -16.253906 11.472656 -16.253906 C 9.5 -16.253906 7.828125 -15.535156 6.691406 -14.25 L 6.125 -15.804688 L 2 -15.804688 Z M 2 0 "/></g></g></g><g fill="#053b84" fill-opacity="1"><g transform="translate(291.232899, 84.940235)"><g><path d="M 9.859375 0.449219 C 13.953125 0.449219 17.089844 -1.582031 18.492188 -5.109375 L 12.9375 -5.109375 C 12.308594 -4.363281 11.203125 -3.882812 9.976562 -3.882812 C 8.363281 -3.882812 7.019531 -4.75 6.601562 -6.484375 L 18.792969 -6.484375 C 19.089844 -12.367188 15.535156 -16.253906 9.886719 -16.253906 C 4.601562 -16.253906 0.925781 -12.847656 0.925781 -7.917969 C 0.925781 -2.957031 4.570312 0.449219 9.859375 0.449219 Z M 6.632812 -9.589844 C 7.109375 -11.113281 8.363281 -11.949219 9.949219 -11.949219 C 11.679688 -11.949219 12.847656 -11.054688 13.324219 -9.589844 Z M 6.632812 -9.589844 "/></g></g></g><g fill="#053b84" fill-opacity="1"><g transform="translate(310.912725, 84.940235)"><g><path d="M 2 0 L 7.738281 0 L 7.738281 -8.515625 C 7.738281 -10.425781 8.722656 -11.5 10.308594 -11.5 C 11.832031 -11.5 12.726562 -10.515625 12.726562 -8.664062 L 12.726562 0 L 18.460938 0 L 18.460938 -9.261719 C 18.460938 -13.535156 15.921875 -16.253906 11.859375 -16.253906 C 9.738281 -16.253906 7.886719 -15.503906 6.722656 -14.191406 L 6.125 -15.804688 L 2 -15.804688 Z M 2 0 "/></g></g></g><g fill="#053b84" fill-opacity="1"><g transform="translate(331.070358, 84.940235)"><g><path d="M 10.039062 0 L 13.234375 0 L 13.234375 -4.839844 L 11.589844 -4.839844 C 9.917969 -4.839844 9.140625 -5.585938 9.140625 -7.230469 L 9.140625 -11.292969 L 13.027344 -11.292969 L 13.027344 -15.804688 L 9.140625 -15.804688 L 9.140625 -19.957031 L 4.691406 -19.957031 L 4.390625 -17.894531 C 4.152344 -16.253906 3.703125 -15.804688 1.910156 -15.804688 L 0.476562 -15.804688 L 0.476562 -11.292969 L 3.40625 -11.292969 L 3.40625 -6.125 C 3.40625 -2.121094 5.707031 0 10.039062 0 Z M 10.039062 0 "/></g></g></g><g fill="#053b84" fill-opacity="1"><g transform="translate(345.464399, 84.940235)"><g><path d="M 0.328125 4.808594 L 13.621094 4.808594 L 13.621094 1.433594 L 0.328125 1.433594 Z M 0.328125 4.808594 "/></g></g></g><g fill="#053b84" fill-opacity="1"><g transform="translate(359.410499, 84.940235)"><g><path d="M 0.148438 0 L 6.542969 0 L 7.679688 -2.957031 L 14.816406 -2.957031 L 15.953125 0 L 22.375 0 L 14.25 -20.914062 L 8.273438 -20.914062 Z M 8.933594 -7.378906 L 11.261719 -13.863281 L 13.59375 -7.378906 Z M 8.933594 -7.378906 "/></g></g></g><g fill="#053b84" fill-opacity="1"><g transform="translate(381.927315, 84.940235)"><g><path d="M 12.1875 0.449219 C 16.96875 0.449219 20.285156 -2.957031 20.285156 -7.917969 C 20.285156 -12.816406 16.96875 -16.253906 12.1875 -16.253906 C 10.484375 -16.253906 8.960938 -15.804688 7.738281 -14.996094 L 7.738281 -22.109375 L 2 -22.109375 L 2 0 L 6.125 0 L 6.691406 -1.582031 C 8.097656 -0.296875 9.976562 0.449219 12.1875 0.449219 Z M 7.527344 -7.917969 C 7.527344 -10.007812 8.960938 -11.5 11.082031 -11.5 C 13.203125 -11.5 14.640625 -10.007812 14.640625 -7.917969 C 14.640625 -5.796875 13.203125 -4.300781 11.082031 -4.300781 C 8.960938 -4.300781 7.527344 -5.796875 7.527344 -7.917969 Z M 7.527344 -7.917969 "/></g></g></g><g fill="#053b84" fill-opacity="1"><g transform="translate(403.130161, 84.940235)"><g><path d="M 2 0 L 7.738281 0 L 7.738281 -22.109375 L 2 -22.109375 Z M 2 0 "/></g></g></g><g fill="#053b84" fill-opacity="1"><g transform="translate(412.865556, 84.940235)"><g><path d="M 9.859375 0.449219 C 13.953125 0.449219 17.089844 -1.582031 18.492188 -5.109375 L 12.9375 -5.109375 C 12.308594 -4.363281 11.203125 -3.882812 9.976562 -3.882812 C 8.363281 -3.882812 7.019531 -4.75 6.601562 -6.484375 L 18.792969 -6.484375 C 19.089844 -12.367188 15.535156 -16.253906 9.886719 -16.253906 C 4.601562 -16.253906 0.925781 -12.847656 0.925781 -7.917969 C 0.925781 -2.957031 4.570312 0.449219 9.859375 0.449219 Z M 6.632812 -9.589844 C 7.109375 -11.113281 8.363281 -11.949219 9.949219 -11.949219 C 11.679688 -11.949219 12.847656 -11.054688 13.324219 -9.589844 Z M 6.632812 -9.589844 "/></g></g></g></svg>