<svg xmlns="http://www.w3.org/2000/svg" xmlns:xlink="http://www.w3.org/1999/xlink" width="1080" zoomAndPan="magnify" viewBox="0 0 810 1439.999935" height="1920" preserveAspectRatio="xMidYMid meet" version="1.0"><defs><clipPath id="f7848a7c63"><path d="M 233.300781 1271.8125 L 583.550781 1271.8125 L 583.550781 1406.0625 L 233.300781 1406.0625 Z M 233.300781 1271.8125 " clip-rule="nonzero"/></clipPath><clipPath id="1d14ff6493"><path d="M 275 1271.8125 L 545 1271.8125 L 545 1391 L 275 1391 Z M 275 1271.8125 " clip-rule="nonzero"/></clipPath><clipPath id="ae3f96d3dc"><path d="M 198.355469 20 L 611.605469 20 L 611.605469 1419 L 198.355469 1419 Z M 198.355469 20 " clip-rule="nonzero"/></clipPath></defs><g clip-path="url(#f7848a7c63)"><path fill="#000000" d="M 277.222656 795.410156 L 277.222656 1138.496094 C 277.222656 1177.039062 273.671875 1217.433594 277.222656 1252.847656 C 284.324219 1323.542969 338.140625 1391.585938 410.960938 1390.597656 C 441.222656 1390.195312 470.457031 1375.339844 488.871094 1359.410156 C 514.976562 1336.820312 538.5625 1294.847656 542.09375 1248.941406 C 547.523438 1178.539062 542.09375 1099.117188 542.09375 1021.546875 L 542.09375 794.125 C 478.445312 821.078125 346.269531 822.792969 277.222656 795.410156 Z M 391.488281 751.242188 C 350.457031 753.140625 309.175781 756.78125 282.421875 772.011719 C 310.0625 792.117188 359.175781 795.835938 405.769531 796.71875 C 452.910156 797.601562 502.59375 790.1875 533 774.609375 C 501.335938 752.550781 443.8125 748.804688 391.488281 751.242188 Z M 256.449219 488.722656 L 256.449219 523.804688 C 261.128906 531.253906 272.414062 532.089844 277.222656 539.402344 L 277.222656 751.242188 C 337.019531 727.203125 454.863281 725.464844 518.71875 744.738281 C 528.933594 747.816406 536.394531 752.179688 542.09375 751.242188 L 542.09375 539.402344 C 561 535.792969 565.441406 510.800781 560.277344 487.421875 C 480.582031 515.53125 338.230469 513.230469 256.460938 488.722656 Z M 259.046875 462.730469 C 334.585938 494.464844 485.316406 495.953125 558.960938 461.4375 C 481.972656 430.550781 333.992188 428.347656 259.046875 462.730469 Z M 582.335938 452.335938 C 579.769531 485.003906 586.027344 500.988281 582.335938 521.214844 C 579.261719 538.050781 563.078125 541.324219 560.273438 554.996094 C 555.324219 578.984375 560.273438 613.21875 560.273438 643.367188 L 560.273438 1078.722656 C 560.273438 1137.398438 564.523438 1194.363281 560.273438 1252.851562 C 554.894531 1326.730469 500.765625 1396.941406 431.726562 1404.894531 C 366.542969 1412.414062 328.292969 1384.898438 301.886719 1354.222656 C 279.582031 1328.308594 262.453125 1296.855469 259.039062 1258.042969 C 254.234375 1203.355469 259.039062 1141.09375 259.039062 1081.320312 L 259.039062 640.773438 C 259.039062 614.746094 264.796875 576.457031 259.039062 553.703125 C 256.023438 541.789062 241.234375 541.972656 236.964844 527.710938 C 233.332031 515.574219 231.535156 467.835938 235.667969 454.9375 C 241.394531 437.042969 272.183594 430.496094 294.097656 426.347656 C 355.371094 414.746094 425.84375 413.238281 492.746094 421.148438 C 527.882812 425.300781 562.195312 431.988281 582.335938 452.335938 " fill-opacity="1" fill-rule="evenodd"/></g><g clip-path="url(#1d14ff6493)"><path fill="#d60f6d" d="M 542.09375 794.125 L 542.09375 1021.546875 C 542.09375 1099.117188 547.523438 1178.539062 542.09375 1248.941406 C 538.5625 1294.847656 514.976562 1336.820312 488.871094 1359.410156 C 470.457031 1375.339844 441.222656 1390.195312 410.960938 1390.597656 C 338.140625 1391.585938 284.324219 1323.542969 277.222656 1252.847656 C 273.671875 1217.433594 277.222656 1177.039062 277.222656 1138.496094 L 277.222656 795.410156 C 346.269531 822.792969 478.445312 821.078125 542.09375 794.125 " fill-opacity="1" fill-rule="evenodd"/></g><g clip-path="url(#ae3f96d3dc)"><path fill="#100f0d" d="M 280.558594 60.085938 L 529.773438 60.085938 L 529.773438 1254.261719 C 529.773438 1323.183594 474.019531 1378.941406 405.230469 1378.941406 C 336.3125 1378.941406 280.558594 1323.183594 280.558594 1254.261719 Z M 198.355469 20.46875 L 198.355469 60.085938 L 240.328125 60.085938 L 240.328125 1254.261719 C 240.574219 1345.414062 314.582031 1419.054688 405.726562 1418.808594 C 496.371094 1418.558594 569.882812 1345.039062 570.132812 1254.261719 L 570.132812 60.085938 L 612.101562 60.085938 L 612.101562 20.46875 L 198.355469 20.46875 " fill-opacity="1" fill-rule="nonzero"/></g></svg>